<svg width="230" height="50" viewBox="0 0 230 50" fill="none" xmlns="http://www.w3.org/2000/svg">
<path d="M5.70234 47.245V48.6023H0.703125V42.3802H5.58139V43.7375H2.45016V44.7857H5.21854V46.1027H2.45016V47.245H5.70234ZM3.48495 41.8695H2.27546L3.47151 40.5256H5.16479L3.48495 41.8695Z" fill="#0099A8"/>
<path d="M16.104 45.3502H17.6629V47.9304C16.9372 48.4411 15.9562 48.7233 15.0558 48.7233C13.0803 48.7233 11.6289 47.3795 11.6289 45.4846C11.6289 43.5897 13.0803 42.2458 15.0961 42.2458C16.2653 42.2458 17.206 42.649 17.8107 43.3881L16.6953 44.3961C16.2653 43.9257 15.7815 43.6972 15.1902 43.6972C14.1285 43.6972 13.4163 44.3961 13.4163 45.4712C13.4163 46.5194 14.1285 47.2451 15.1767 47.2451C15.4993 47.2451 15.8218 47.1779 16.1309 47.0435V45.3502H16.104Z" fill="#0099A8"/>
<path d="M22.824 46.9493H21.8699V48.6023H20.1094V42.3801H22.9584C24.6517 42.3801 25.7268 43.2536 25.7268 44.6782C25.7268 45.592 25.2833 46.2639 24.5038 46.6402L25.8477 48.5888H23.9663L22.824 46.9493ZM22.8374 43.7643H21.8564V45.592H22.8374C23.5631 45.592 23.926 45.256 23.926 44.6916C23.9394 44.1003 23.5766 43.7643 22.8374 43.7643Z" fill="#0099A8"/>
<path d="M32.1764 47.3928H29.5424L29.0586 48.6023H27.2578L29.9993 42.3802H31.7329L34.4879 48.6023H32.6602L32.1764 47.3928ZM31.2222 41.8695H30.0128L31.2088 40.5256H32.9021L31.2222 41.8695ZM31.6657 46.0893L30.8594 44.1003L30.0531 46.0893H31.6657Z" fill="#0099A8"/>
<path d="M37.3497 43.7778H35.4414V42.3801H41.0185V43.7778H39.1236V48.6023H37.3631V43.7778H37.3497Z" fill="#0099A8"/>
<path d="M42.9941 42.3801H44.7546V48.6023H42.9941V42.3801Z" fill="#0099A8"/>
<path d="M46.9062 48.038L47.4841 46.7344C48.0351 47.0972 48.8145 47.3526 49.5402 47.3526C50.2659 47.3526 50.5481 47.151 50.5481 46.8419C50.5481 45.8609 47.0138 46.5731 47.0138 44.2617C47.0138 43.1462 47.9142 42.2458 49.7687 42.2458C50.575 42.2458 51.4082 42.434 52.0264 42.7834L51.4889 44.087C50.8976 43.7644 50.3063 43.6032 49.7687 43.6032C49.0296 43.6032 48.7608 43.8585 48.7608 44.1676C48.7608 45.1217 52.2817 44.4095 52.2817 46.6941C52.2817 47.7826 51.3814 48.6965 49.5268 48.6965C48.5055 48.7233 47.4976 48.4546 46.9062 48.038Z" fill="#0099A8"/>
<path d="M56.246 47.6751C56.246 47.9305 56.2057 48.1186 55.9504 48.6965L55.386 50H54.3243L54.7409 48.5487C54.4184 48.4008 54.2168 48.0917 54.2168 47.6751C54.2168 47.0704 54.6468 46.6807 55.2247 46.6807C55.816 46.6807 56.246 47.0704 56.246 47.6751Z" fill="#0099A8"/>
<path d="M61.9297 48.038L62.5076 46.7344C63.0585 47.0972 63.838 47.3526 64.5637 47.3526C65.2894 47.3526 65.5716 47.151 65.5716 46.8419C65.5716 45.8609 62.0372 46.5731 62.0372 44.2617C62.0372 43.1462 62.9376 42.2458 64.7921 42.2458C65.5985 42.2458 66.4317 42.434 67.0499 42.7834L66.5123 44.087C65.921 43.7644 65.3297 43.6032 64.7921 43.6032C64.053 43.6032 63.7842 43.8585 63.7842 44.1676C63.7842 45.1217 67.3052 44.4095 67.3052 46.6941C67.3052 47.7826 66.4048 48.6965 64.5502 48.6965C63.5289 48.7233 62.521 48.4546 61.9297 48.038Z" fill="#0099A8"/>
<path d="M74.4406 47.245V48.6023H69.4414V42.3801H74.3197V43.7374H71.1884V44.7857H73.9568V46.1027H71.1884V47.245H74.4406Z" fill="#0099A8"/>
<path d="M82.3696 48.6023L82.3562 45.3098L80.7569 47.9975H79.9775L78.3917 45.4038V48.6157H76.7656V42.3801H78.217L80.4075 45.9683L82.5174 42.3801H83.9688L83.9822 48.6023H82.3696Z" fill="#0099A8"/>
<path d="M91.8048 43.7778H89.8965V42.3801H95.4736V43.7778H93.5787V48.6023H91.8182V43.7778H91.8048Z" fill="#0099A8"/>
<path d="M101.305 47.3928H98.6713L98.1875 48.6023H96.3867L99.1282 42.3801H100.862L103.617 48.6023H101.789L101.305 47.3928ZM100.795 46.0892L99.9883 44.1003L99.182 46.0892H100.795Z" fill="#0099A8"/>
<path d="M109.046 48.6023L107.756 46.6805L106.479 48.6023H104.477L106.748 45.4576L104.584 42.3801H106.56L107.809 44.1809L109.032 42.3801H110.927L108.764 45.377L111.075 48.5888H109.046V48.6023Z" fill="#0099A8"/>
<path d="M116.827 47.3928H114.193L113.709 48.6023H111.908L114.65 42.3801H116.383L119.138 48.6023H117.324L116.827 47.3928ZM116.316 46.0892L115.51 44.1003L114.703 46.0892H116.316Z" fill="#0099A8"/>
<path d="M120.551 48.038L121.129 46.7344C121.68 47.0972 122.459 47.3526 123.185 47.3526C123.91 47.3526 124.193 47.151 124.193 46.8419C124.193 45.8609 120.658 46.5731 120.658 44.2617C120.658 43.1462 121.559 42.2458 123.413 42.2458C124.22 42.2458 125.053 42.434 125.671 42.7834L125.133 44.087C124.542 43.7644 123.951 43.6032 123.413 43.6032C122.674 43.6032 122.405 43.8585 122.405 44.1676C122.405 45.1217 125.926 44.4095 125.926 46.6941C125.926 47.7826 125.026 48.6965 123.171 48.6965C122.15 48.7233 121.129 48.4546 120.551 48.038Z" fill="#0099A8"/>
<path d="M136.972 47.245V48.6023H131.973V42.3801H136.851V43.7374H133.72V44.7857H136.488V46.1027H133.72V47.245H136.972Z" fill="#0099A8"/>
<path d="M145.545 42.3801V48.6023H143.785V43.7374H142.629V42.3801H145.545Z" fill="#0099A8"/>
<path d="M147.816 45.4846C147.816 43.4285 148.972 42.2458 150.558 42.2458C152.144 42.2458 153.299 43.4285 153.299 45.4846C153.299 47.5407 152.144 48.7233 150.558 48.7233C148.972 48.7233 147.816 47.5407 147.816 45.4846ZM151.525 45.4846C151.525 44.181 151.122 43.6838 150.558 43.6838C149.993 43.6838 149.577 44.1676 149.577 45.4846C149.577 46.8016 149.98 47.2854 150.558 47.2854C151.122 47.2854 151.525 46.8016 151.525 45.4846Z" fill="#0099A8"/>
<path d="M155.234 45.4846C155.234 43.4285 156.39 42.2458 157.976 42.2458C159.562 42.2458 160.717 43.4285 160.717 45.4846C160.717 47.5407 159.562 48.7233 157.976 48.7233C156.39 48.7233 155.234 47.5407 155.234 45.4846ZM158.943 45.4846C158.943 44.181 158.54 43.6838 157.976 43.6838C157.411 43.6838 156.995 44.1676 156.995 45.4846C156.995 46.8016 157.398 47.2854 157.976 47.2854C158.54 47.2854 158.943 46.8016 158.943 45.4846Z" fill="#0099A8"/>
<path d="M162.547 44.0197C162.547 42.9446 163.219 42.2996 164.133 42.2996C165.06 42.2996 165.732 42.9446 165.732 44.0197C165.732 45.1083 165.06 45.7399 164.133 45.7399C163.219 45.7533 162.547 45.1083 162.547 44.0197ZM167.815 42.3802H169.092L164.845 48.6023H163.568L167.815 42.3802ZM164.657 44.0197C164.657 43.3881 164.428 43.1462 164.133 43.1462C163.85 43.1462 163.609 43.4015 163.609 44.0197C163.609 44.6379 163.85 44.8932 164.133 44.8932C164.442 44.9067 164.657 44.6513 164.657 44.0197ZM166.941 46.9494C166.941 45.8743 167.613 45.2292 168.527 45.2292C169.441 45.2292 170.126 45.8743 170.126 46.9494C170.126 48.0379 169.454 48.6695 168.527 48.6695C167.6 48.6695 166.941 48.0379 166.941 46.9494ZM169.051 46.9494C169.051 46.3177 168.823 46.0758 168.527 46.0758C168.231 46.0758 168.003 46.3312 168.003 46.9494C168.003 47.5675 168.231 47.8229 168.527 47.8229C168.823 47.8363 169.051 47.581 169.051 46.9494Z" fill="#0099A8"/>
<path d="M177.96 43.7374V45.1082H180.701V46.4655H177.96V48.6023H176.199V42.3801H181.077V43.7374H177.96Z" fill="#0099A8"/>
<path d="M183.229 42.3801H184.989V47.2046H187.959V48.6023H183.229V42.3801Z" fill="#0099A8"/>
<path d="M194.974 47.245V48.6023H189.975V42.3801H194.853V43.7374H191.722V44.7857H194.49V46.1027H191.722V47.245H194.974Z" fill="#0099A8"/>
<path d="M201.169 48.6023L199.879 46.6805L198.602 48.6023H196.6L198.871 45.4576L196.707 42.3801H198.683L199.932 44.1809L201.155 42.3801H203.05L200.887 45.377L203.198 48.5888H201.169V48.6023Z" fill="#0099A8"/>
<path d="M204.932 42.3802H206.692V48.6023H204.932V42.3802ZM206.128 40.5256H207.821L206.155 41.8695H204.945L206.128 40.5256Z" fill="#0099A8"/>
<path d="M215.561 42.3801L212.9 48.6023H211.167L208.506 42.3801H210.401L212.094 46.4252L213.814 42.3801H215.561Z" fill="#0099A8"/>
<path d="M222.255 47.245V48.6023H217.256V42.3801H222.134V43.7374H219.003V44.7857H221.771V46.1027H219.003V47.245H222.255Z" fill="#0099A8"/>
<path d="M224.566 42.3801H226.327V47.2046H229.297V48.6023H224.566V42.3801Z" fill="#0099A8"/>
<path d="M46.3344 11.9673C45.2728 11.4201 44.4302 10.654 43.8283 9.69098C43.2263 8.72793 42.9199 7.63355 42.9199 6.41879C42.9199 5.20403 43.2263 4.1206 43.8283 3.14661C44.4302 2.18356 45.2728 1.41749 46.3453 0.870301C47.4178 0.323113 48.6107 0.0385742 49.9349 0.0385742C50.9636 0.0385742 51.9157 0.202731 52.7693 0.531044C53.6229 0.859357 54.3562 1.34088 54.9581 1.98656L53.7324 3.11378C52.7365 2.12884 51.4998 1.63637 50.0115 1.63637C49.0265 1.63637 48.1401 1.84429 47.3521 2.26016C46.5533 2.67602 45.9404 3.2451 45.4917 3.97833C45.043 4.71156 44.8241 5.5214 44.8241 6.42974C44.8241 7.32713 45.043 8.14791 45.4917 8.88114C45.9404 9.61437 46.5642 10.1834 47.3521 10.5993C48.151 11.0152 49.0375 11.2231 50.0115 11.2231C51.4889 11.2231 52.7255 10.7197 53.7324 9.72381L54.9581 10.851C54.3562 11.4967 53.6229 11.9782 52.7584 12.3065C51.8938 12.6349 50.9527 12.81 49.913 12.81C48.5888 12.799 47.3959 12.5254 46.3344 11.9673Z" fill="#FF8300"/>
<path d="M65.4102 11.9673C64.3377 11.4201 63.495 10.654 62.8822 9.68004C62.2693 8.70604 61.9629 7.6226 61.9629 6.41879C61.9629 5.21498 62.2693 4.13154 62.8822 3.15755C63.495 2.18355 64.3377 1.41749 65.4102 0.870301C66.4827 0.323113 67.6865 0.0385742 69.0216 0.0385742C70.3458 0.0385742 71.5387 0.312169 72.6112 0.870301C73.6837 1.41749 74.5154 2.18356 75.1283 3.14661C75.7302 4.10966 76.0366 5.20403 76.0366 6.41879C76.0366 7.63355 75.7302 8.71698 75.1283 9.69098C74.5263 10.654 73.6837 11.4201 72.6112 11.9673C71.5387 12.5145 70.3458 12.799 69.0216 12.799C67.6865 12.799 66.4827 12.5254 65.4102 11.9673ZM71.6372 10.5884C72.4142 10.1725 73.027 9.60343 73.4648 8.8702C73.9135 8.13696 74.1324 7.32712 74.1324 6.41879C74.1324 5.5214 73.9135 4.70062 73.4648 3.96739C73.0161 3.23416 72.4033 2.66508 71.6372 2.24922C70.8602 1.83335 69.9847 1.62542 69.0216 1.62542C68.0476 1.62542 67.1721 1.83335 66.3842 2.24922C65.5962 2.66508 64.9834 3.23416 64.5347 3.96739C64.086 4.70062 63.8671 5.51046 63.8671 6.41879C63.8671 7.31618 64.086 8.13696 64.5347 8.8702C64.9834 9.60343 65.5962 10.1725 66.3842 10.5884C67.1721 11.0042 68.0476 11.2122 69.0216 11.2122C69.9956 11.2122 70.8602 11.0042 71.6372 10.5884Z" fill="#FF8300"/>
<path d="M96.85 12.6568L96.8281 3.57352L92.0457 11.1466H91.1811L86.3987 3.62823V12.6568H84.582V0.191895H86.1361L91.6517 8.95785L97.0908 0.191895H98.6448L98.6667 12.6568H96.85Z" fill="#FF8300"/>
<path d="M117.501 1.35193C118.486 2.12894 118.979 3.19049 118.979 4.53657C118.979 5.88266 118.486 6.95514 117.501 7.72121C116.516 8.49821 115.17 8.88124 113.452 8.88124H110.18V12.6568H108.309V0.191895H113.463C115.17 0.191895 116.527 0.574924 117.501 1.35193ZM116.144 6.60494C116.779 6.12341 117.085 5.43396 117.085 4.52562C117.085 3.62824 116.768 2.92783 116.144 2.44631C115.51 1.96478 114.601 1.72402 113.408 1.72402H110.191V7.31629H113.408C114.601 7.32723 115.521 7.08647 116.144 6.60494Z" fill="#FF8300"/>
<path d="M136.27 12.6568L133.414 8.82652C133.064 8.84841 132.779 8.85936 132.582 8.85936H129.321V12.6568H127.428V0.191895H132.582C134.3 0.191895 135.647 0.574924 136.631 1.35193C137.616 2.12894 138.109 3.19049 138.109 4.53657C138.109 5.49962 137.857 6.32041 137.354 6.99892C136.85 7.67743 136.128 8.1699 135.198 8.47633L138.339 12.6568H136.27ZM135.263 6.61589C135.898 6.13436 136.205 5.43396 136.205 4.53657C136.205 3.63918 135.887 2.93878 135.263 2.45726C134.629 1.97573 133.72 1.73496 132.528 1.73496H129.321V7.34912H132.538C133.72 7.34912 134.64 7.10836 135.263 6.61589Z" fill="#FF8300"/>
<path d="M155.258 9.53787H148.232L146.776 12.6568H144.828L150.814 0.191895H152.686L158.694 12.6568H156.713L155.258 9.53787ZM154.601 8.11518L151.745 2.00856L148.888 8.11518H154.601Z" fill="#FF8300"/>
<path d="M54.0169 19.4312C55.1113 19.9017 55.943 20.5584 56.534 21.412C57.1249 22.2656 57.4204 23.2834 57.4204 24.4543C57.4204 25.6144 57.1249 26.6212 56.534 27.4858C55.943 28.3503 55.1003 29.007 54.0169 29.4666C52.9225 29.9262 51.6421 30.156 50.1647 30.156H46.794V34.5007H42.9199V18.7417H50.1538C51.6421 18.7417 52.9335 18.9715 54.0169 19.4312ZM52.5942 26.468C53.1961 25.9974 53.5025 25.3189 53.5025 24.4543C53.5025 23.5679 53.1961 22.8894 52.5942 22.4188C51.9923 21.9482 51.1059 21.7075 49.9458 21.7075H46.794V27.1793H49.9458C51.1059 27.1793 51.9923 26.9386 52.5942 26.468Z" fill="#FF8300"/>
<path d="M70.8163 34.4898L67.5988 30.1013H67.4127H64.0421V34.4898H60.168V18.7417H67.4018C68.8792 18.7417 70.1706 18.9715 71.254 19.4421C72.3484 19.9127 73.1801 20.5693 73.7711 21.4229C74.362 22.2765 74.6575 23.2943 74.6575 24.4653C74.6575 25.6363 74.362 26.6431 73.7601 27.4967C73.1582 28.3394 72.3156 28.996 71.2212 29.4447L74.9749 34.5117H70.8163V34.4898ZM69.8423 22.4188C69.2404 21.9482 68.3539 21.7075 67.1939 21.7075H64.0421V27.2012H67.1939C68.3539 27.2012 69.2404 26.9605 69.8423 26.4789C70.4442 25.9974 70.7506 25.3189 70.7506 24.4543C70.7506 23.5679 70.4442 22.8894 69.8423 22.4188Z" fill="#FF8300"/>
<path d="M81.124 33.7018C79.7342 33.0014 78.6398 32.0274 77.8518 30.7907C77.0639 29.5541 76.6699 28.1642 76.6699 26.6212C76.6699 25.0781 77.0639 23.6882 77.8518 22.4516C78.6398 21.2149 79.7342 20.241 81.124 19.5406C82.5139 18.8401 84.0788 18.479 85.8189 18.479C87.559 18.479 89.113 18.8292 90.5028 19.5406C91.8927 20.241 92.9761 21.2149 93.775 22.4516C94.5739 23.6882 94.9679 25.0781 94.9679 26.6212C94.9679 28.1642 94.5739 29.5541 93.775 30.7907C92.9761 32.0274 91.8927 33.0014 90.5028 33.7018C89.113 34.4022 87.559 34.7633 85.8189 34.7633C84.0788 34.7633 82.5139 34.4131 81.124 33.7018ZM88.4892 31.0096C89.2881 30.5828 89.9119 29.9809 90.3606 29.2258C90.8093 28.4597 91.0391 27.5952 91.0391 26.6102C91.0391 25.6362 90.8093 24.7607 90.3606 23.9947C89.9119 23.2286 89.2771 22.6376 88.4892 22.2108C87.6903 21.784 86.8038 21.5651 85.8189 21.5651C84.834 21.5651 83.9366 21.784 83.1486 22.2108C82.3497 22.6376 81.7259 23.2395 81.2772 23.9947C80.8286 24.7607 80.5987 25.6253 80.5987 26.6102C80.5987 27.5842 80.8286 28.4597 81.2772 29.2258C81.7259 29.9918 82.3607 30.5828 83.1486 31.0096C83.9475 31.4364 84.834 31.6553 85.8189 31.6553C86.8038 31.6553 87.6903 31.4364 88.4892 31.0096Z" fill="#FF8300"/>
<path d="M109.174 26.3694H112.709V32.7606C111.8 33.4063 110.75 33.8987 109.557 34.2489C108.364 34.5991 107.16 34.7633 105.945 34.7633C104.205 34.7633 102.651 34.4131 101.262 33.7127C99.8717 33.0123 98.7882 32.0492 98.0003 30.8126C97.2123 29.5759 96.8184 28.1751 96.8184 26.6102C96.8184 25.0452 97.2123 23.6554 98.0003 22.4187C98.7882 21.1821 99.8826 20.2081 101.283 19.5186C102.684 18.8182 104.26 18.468 106.011 18.468C107.478 18.468 108.802 18.6978 109.995 19.1684C111.188 19.639 112.194 20.3066 113.004 21.193L110.52 23.3489C109.327 22.167 107.883 21.576 106.197 21.576C105.136 21.576 104.184 21.784 103.352 22.2108C102.52 22.6267 101.874 23.2286 101.415 23.9837C100.955 24.7497 100.725 25.6252 100.725 26.6211C100.725 27.5951 100.955 28.4706 101.415 29.2367C101.874 30.0027 102.52 30.5937 103.341 31.0205C104.162 31.4473 105.092 31.6662 106.142 31.6662C107.259 31.6662 108.255 31.4364 109.152 30.9877V26.3694H109.174Z" fill="#FF8300"/>
<path d="M126.935 34.4898L123.706 30.1013H123.52H120.149V34.4898H116.275V18.7417H123.509C124.987 18.7417 126.278 18.9715 127.361 19.4421C128.456 19.9127 129.288 20.5693 129.878 21.4229C130.469 22.2765 130.765 23.2943 130.765 24.4653C130.765 25.6363 130.469 26.6431 129.868 27.4967C129.266 28.3394 128.423 28.996 127.329 29.4447L131.082 34.5117H126.935V34.4898ZM125.961 22.4188C125.359 21.9482 124.472 21.7075 123.312 21.7075H120.16V27.2012H123.312C124.472 27.2012 125.359 26.9605 125.961 26.4789C126.563 25.9974 126.869 25.3189 126.869 24.4543C126.869 23.5679 126.563 22.8894 125.961 22.4188Z" fill="#FF8300"/>
<path d="M144.851 31.1191H137.091L135.614 34.4898H131.652L139.105 18.7417H142.924L150.399 34.4898H146.339L144.851 31.1191ZM143.636 28.3503L140.987 22.3203L138.339 28.3503H143.636Z" fill="#FF8300"/>
<path d="M167.339 34.4898L167.317 25.0344L162.392 32.8154H160.652L155.76 25.2314V34.4788H152.127V18.7417H155.323L161.582 28.5254L167.744 18.7417H170.917L170.961 34.4898H167.339Z" fill="#FF8300"/>
<path d="M185.944 31.1191H178.185L176.708 34.4898H172.746L180.199 18.7417H184.018L191.493 34.4898H187.433L185.944 31.1191ZM184.73 28.3503L182.081 22.3203L179.433 28.3503H184.73Z" fill="#FF8300"/>
<path d="M193.232 18.7417H200.827C202.644 18.7417 204.242 19.07 205.643 19.7157C207.033 20.3723 208.116 21.2916 208.893 22.4735C209.67 23.6554 210.053 25.0344 210.053 26.6103C210.053 28.1862 209.67 29.5651 208.893 30.747C208.116 31.9289 207.043 32.8482 205.643 33.5048C204.253 34.1615 202.644 34.4788 200.827 34.4788H193.232V18.7417ZM200.63 31.5021C202.305 31.5021 203.64 31.0644 204.636 30.1889C205.632 29.3134 206.124 28.1205 206.124 26.6212C206.124 25.1219 205.632 23.929 204.636 23.0535C203.64 22.178 202.305 21.7403 200.63 21.7403H197.096V31.5021H200.63Z" fill="#FF8300"/>
<path d="M223.722 31.1191H215.962L214.485 34.4898H210.523L217.976 18.7417H221.796L229.27 34.4898H225.21L223.722 31.1191ZM222.507 28.3503L219.858 22.3203L217.21 28.3503H222.507Z" fill="#FF8300"/>
<path d="M9.62006 1.27569V5.10276C9.62006 5.81147 9.05308 6.37845 8.34437 6.37845C7.63565 6.37845 7.06867 5.81147 7.06867 5.10276V1.27569C7.06867 0.566972 7.63565 0 8.34437 0C9.05308 0 9.62006 0.566972 9.62006 1.27569ZM26.2298 0C25.5211 0 24.9541 0.566972 24.9541 1.27569V5.10276C24.9541 5.81147 25.5211 6.37845 26.2298 6.37845C26.9385 6.37845 27.5055 5.81147 27.5055 5.10276V1.27569C27.5055 0.566972 26.9385 0 26.2298 0ZM17.2871 0C16.5784 0 16.0114 0.566972 16.0114 1.27569V5.10276C16.0114 5.81147 16.5784 6.37845 17.2871 6.37845C17.9958 6.37845 18.5628 5.81147 18.5628 5.10276V1.27569C18.5628 0.566972 17.9958 0 17.2871 0ZM10.8958 15.3212H8.34437C7.63565 15.3212 7.06867 15.8881 7.06867 16.5968V17.8725C7.06867 18.5813 7.63565 19.1482 8.34437 19.1482H10.8958C11.6045 19.1482 12.1714 18.5813 12.1714 17.8725V16.5968C12.1843 15.901 11.6045 15.3212 10.8958 15.3212ZM18.5628 15.3212H16.0114C15.3027 15.3212 14.7357 15.8881 14.7357 16.5968V17.8725C14.7357 18.5813 15.3027 19.1482 16.0114 19.1482H18.5628C19.2715 19.1482 19.8385 18.5813 19.8385 17.8725V16.5968C19.8513 15.901 19.2715 15.3212 18.5628 15.3212ZM26.2298 15.3212H23.6784C22.9697 15.3212 22.4027 15.8881 22.4027 16.5968V17.8725C22.4027 18.5813 22.9697 19.1482 23.6784 19.1482H26.2298C26.9385 19.1482 27.5055 18.5813 27.5055 17.8725V16.5968C27.5055 15.901 26.9385 15.3212 26.2298 15.3212ZM10.8958 20.4368H8.34437C7.63565 20.4368 7.06867 21.0038 7.06867 21.7125V22.9882C7.06867 23.6969 7.63565 24.2639 8.34437 24.2639H10.8958C11.6045 24.2639 12.1714 23.6969 12.1714 22.9882V21.7125C12.1843 21.0038 11.6045 20.4368 10.8958 20.4368ZM18.5628 20.4368H16.0114C15.3027 20.4368 14.7357 21.0038 14.7357 21.7125V22.9882C14.7357 23.6969 15.3027 24.2639 16.0114 24.2639H18.5628C19.2715 24.2639 19.8385 23.6969 19.8385 22.9882V21.7125C19.8513 21.0038 19.2715 20.4368 18.5628 20.4368ZM10.8958 25.5524H8.34437C7.63565 25.5524 7.06867 26.1194 7.06867 26.8281V28.1038C7.06867 28.8125 7.63565 29.3795 8.34437 29.3795H10.8958C11.6045 29.3795 12.1714 28.8125 12.1714 28.1038V26.8281C12.1843 26.1194 11.6045 25.5524 10.8958 25.5524ZM18.5628 25.5524H16.0114C15.3027 25.5524 14.7357 26.1194 14.7357 26.8281V28.1038C14.7357 28.8125 15.3027 29.3795 16.0114 29.3795H18.5628C19.2715 29.3795 19.8385 28.8125 19.8385 28.1038V26.8281C19.8513 26.1194 19.2715 25.5524 18.5628 25.5524ZM5.793 31.9309C4.38845 31.9309 3.24161 30.7841 3.24161 29.3795V12.7698H31.3454V19.2384C32.2345 19.3544 33.0979 19.5735 33.8968 19.9085V7.65413C33.8968 4.83216 31.6031 2.53849 28.7812 2.53849V5.08987C28.7812 6.49442 27.6343 7.64125 26.2298 7.64125C24.8252 7.64125 23.6784 6.49442 23.6784 5.08987V2.53849H19.8513V5.08987C19.8513 6.49442 18.7045 7.64125 17.3 7.64125C15.8954 7.64125 14.7486 6.49442 14.7486 5.08987V2.53849H10.9215V5.08987C10.9215 6.49442 9.77469 7.64125 8.37015 7.64125C6.9656 7.64125 5.81876 6.49442 5.81876 5.08987V2.53849C2.99678 2.53849 0.703125 4.83216 0.703125 7.65413V29.3795C0.703125 32.2015 2.99678 34.4952 5.81876 34.4952H21.2559C20.792 33.7091 20.4441 32.8458 20.2121 31.9438H5.793V31.9309Z" fill="#FD8604"/>
<path d="M30.4818 20.4368C25.5465 20.4368 21.5391 24.4442 21.5391 29.3795C21.5391 34.3147 25.5465 38.3222 30.4818 38.3222C35.417 38.3222 39.4245 34.3147 39.4245 29.3795C39.4374 24.4442 35.4299 20.4368 30.4818 20.4368ZM30.4818 35.7708C26.964 35.7708 24.0904 32.9102 24.0904 29.3795C24.0904 25.8617 26.9511 22.9881 30.4818 22.9881C33.9996 22.9881 36.8731 25.8488 36.8731 29.3795C36.8731 32.9102 34.0125 35.7708 30.4818 35.7708Z" fill="#0FC6C0"/>
<path d="M34.5157 26.3772C33.4462 25.501 31.8612 25.6685 30.8819 26.622L30.4953 27.0086L30.1087 26.622C29.1294 25.6556 27.5316 25.501 26.475 26.3772C25.2508 27.3694 25.1864 29.1605 26.2817 30.2429L30.0572 33.954C30.302 34.1989 30.6886 34.1989 30.9463 33.954L34.7219 30.2429C35.7914 29.1605 35.7398 27.3694 34.5157 26.3772Z" fill="#0FC6C0"/>
<path d="M30.4568 38.2836C35.4099 38.2836 39.4253 34.2683 39.4253 29.3152C39.4253 24.362 35.4099 20.3467 30.4568 20.3467C25.5036 20.3467 21.4883 24.362 21.4883 29.3152C21.4883 34.2683 25.5036 38.2836 30.4568 38.2836Z" fill="#0099A8"/>
<path d="M34.5795 23.7871C34.6311 23.6454 34.5924 23.5552 34.4893 23.5036C34.4765 23.4907 34.4636 23.4907 34.4378 23.4779C34.0126 23.3232 33.2652 23.1428 32.273 23.1428C30.8813 23.1428 29.7474 23.3748 28.7165 23.9031C27.08 24.7664 25.959 26.3514 25.959 28.542C25.959 31.5701 28.2011 32.8329 30.7267 32.8329C31.8864 32.8329 32.8271 32.6654 33.4069 32.4592C33.5616 32.4077 33.6002 32.2917 33.5745 32.15L33.3683 30.6681C33.3296 30.5006 33.175 30.4877 33.059 30.5264C32.5951 30.6681 32.0282 30.7454 31.4096 30.7454C29.7474 30.7454 28.6779 29.8692 28.6779 28.3229C28.6779 27.1374 29.1933 26.2483 29.9922 25.7457C30.5463 25.3849 31.2679 25.2174 32.1184 25.2174C32.8142 25.2174 33.4069 25.3334 33.7677 25.4365C33.9224 25.488 34.0512 25.4365 34.1028 25.2819L34.5022 24.0577L34.5795 23.7871Z" fill="white"/>
<path d="M33.0731 35.3973H25.9473C25.9473 34.302 26.8364 33.4128 27.9317 33.4128H35.0575C35.0575 34.5081 34.1684 35.3973 33.0731 35.3973Z" fill="#FD8604"/>
</svg>
