<svg width="32" height="32" viewBox="0 0 32 32" fill="none" xmlns="http://www.w3.org/2000/svg">
<path fill-rule="evenodd" clip-rule="evenodd" d="M15.9405 2.6665C19.5119 2.6665 22.8452 4.09508 25.2857 6.59508C27.7857 9.09508 29.3333 12.3689 29.3333 15.9403C29.3333 23.2022 23.2619 29.1546 15.9405 29.1546C13.7381 29.1546 11.5952 28.5594 9.63094 27.5475L2.66666 29.3332L4.51189 22.4879C3.38094 20.5236 2.72618 18.2617 2.72618 15.8808C2.72618 8.61888 8.67856 2.6665 15.9405 2.6665ZM19.7722 17.607C20.0699 17.726 21.677 18.4998 22.0341 18.6784C22.1223 18.7313 22.2052 18.7737 22.2799 18.8119C22.4572 18.9027 22.5875 18.9694 22.6294 19.0951C22.7484 19.2141 22.7484 19.8689 22.4508 20.6427C22.1532 21.4165 20.8437 22.1308 20.2484 22.1903C19.177 22.3689 18.3437 22.3094 16.2603 21.357C13.3434 20.1068 11.3381 17.3981 10.7629 16.6212C10.6808 16.5103 10.6279 16.4388 10.6056 16.4165C10.427 16.1784 9.29605 14.6308 9.29605 12.9641C9.29605 11.5137 9.97478 10.742 10.3259 10.3428C10.3639 10.2996 10.398 10.2608 10.427 10.226C10.7246 9.86888 11.0818 9.80935 11.3199 9.80935H11.9151C11.9334 9.80935 11.9517 9.809 11.97 9.80865C12.1901 9.80442 12.4141 9.80012 12.6889 10.4046C12.8347 10.8054 13.1589 11.5631 13.4021 12.1315C13.5562 12.4917 13.6777 12.7758 13.7008 12.8451C13.7603 13.0236 13.8199 13.2022 13.7008 13.4403C13.4326 14.0035 13.1403 14.3009 12.9326 14.5121C12.6794 14.7696 12.5522 14.899 12.7484 15.226C14.058 17.4284 15.308 18.2022 17.2722 19.1546C17.5699 19.3332 17.7484 19.2736 17.9865 19.0951C18.0439 19.0186 18.1503 18.8869 18.2744 18.7334C18.5365 18.4091 18.8772 17.9876 18.9984 17.7855C19.2365 17.4284 19.4746 17.4879 19.7722 17.607Z" fill="#777777"/>
</svg>
