<svg width="128" height="41" fill="none" xmlns="http://www.w3.org/2000/svg"><path d="M117.796.381H9.017c-.333 0-.654.01-.987.01-.721.01-1.43.063-2.14.177a7.504 7.504 0 0 0-2.03.622 6.941 6.941 0 0 0-1.73 1.182A6.532 6.532 0 0 0 .864 3.989 6.242 6.242 0 0 0 .2 5.897 11.021 11.021 0 0 0 .01 7.898C0 8.21 0 8.51 0 8.821v23.11c0 .311.011.612.011.923.011.674.078 1.337.189 2.001a6.55 6.55 0 0 0 .665 1.908c.322.601.754 1.14 1.264 1.617a6.94 6.94 0 0 0 1.73 1.182c.644.3 1.332.519 2.03.633.71.103 1.431.166 2.14.176.334.01.655.01.988.01H118.96c.322 0 .665 0 .987-.01.721-.01 1.431-.073 2.141-.176a7.725 7.725 0 0 0 2.04-.633c.644-.3 1.22-.705 1.73-1.182a6.523 6.523 0 0 0 1.265-1.617 6.569 6.569 0 0 0 .665-1.908c.122-.663.189-1.327.2-2.001v-.923c.011-.363.011-.726.011-1.088V9.92c0-.363 0-.726-.011-1.089v-.923a12.113 12.113 0 0 0-.2-2A6.26 6.26 0 0 0 127.124 4c-.666-1.203-1.708-2.178-2.995-2.8a7.34 7.34 0 0 0-2.04-.622c-.71-.114-1.42-.166-2.141-.176-.322 0-.665-.01-.987-.01-.388-.01-.776-.01-1.165-.01Z" fill="#A6A6A6"/><path d="M9.028 39.51c-.322 0-.643 0-.965-.01a14.249 14.249 0 0 1-1.996-.166 6.607 6.607 0 0 1-1.775-.55 5.751 5.751 0 0 1-1.497-1.015 5.237 5.237 0 0 1-1.087-1.4 5.216 5.216 0 0 1-.577-1.66 11.822 11.822 0 0 1-.177-1.876c-.011-.207-.011-.912-.011-.912V8.83s.01-.694.01-.891c.012-.633.067-1.255.178-1.877.1-.58.3-1.14.577-1.659a5.405 5.405 0 0 1 1.087-1.4 6.056 6.056 0 0 1 1.497-1.026 6.516 6.516 0 0 1 1.764-.54c.665-.103 1.33-.155 2.007-.165l.965-.01h109.933l.976.01a14.1 14.1 0 0 1 1.985.166c.621.103 1.22.28 1.786.55 1.109.538 2.018 1.378 2.584 2.415.277.518.477 1.078.577 1.649.111.622.177 1.254.188 1.887v.891c.011.373.011.736.011 1.089v20.923c0 .363 0 .715-.011 1.078v.933a12.95 12.95 0 0 1-.177 1.856c-.1.58-.3 1.14-.577 1.67a5.344 5.344 0 0 1-1.087 1.389 5.839 5.839 0 0 1-1.497 1.026 6.337 6.337 0 0 1-1.786.55c-.665.103-1.331.155-1.996.165-.311.01-.643.01-.965.01h-1.164l-108.78-.01Z" fill="#000"/><path d="M27.286 20.421c.02-1.678.88-3.224 2.271-4.094a4.865 4.865 0 0 0-3.852-2.129c-1.621-.174-3.192.993-4.022.993-.841 0-2.112-.972-3.483-.942a5.114 5.114 0 0 0-4.312 2.692c-1.871 3.306-.47 8.168 1.31 10.839.891 1.31 1.942 2.774 3.313 2.723 1.34-.062 1.84-.87 3.452-.87 1.6 0 2.071.87 3.462.839 1.44-.02 2.341-1.31 3.202-2.63.64-.932 1.14-1.966 1.46-3.05a4.803 4.803 0 0 1-2.8-4.37ZM24.654 12.438a4.87 4.87 0 0 0 1.071-3.45 4.76 4.76 0 0 0-3.092 1.638 4.642 4.642 0 0 0-1.1 3.316 3.907 3.907 0 0 0 3.121-1.504ZM44.207 27.176h-4.573l-1.1 3.316h-1.932l4.323-12.261h2.01l4.324 12.261h-1.972l-1.08-3.316Zm-4.093-1.535h3.622l-1.78-5.373h-.05l-1.792 5.373ZM56.614 26.02c0 2.773-1.45 4.564-3.642 4.564a2.947 2.947 0 0 1-2.752-1.566h-.04v4.432h-1.79V21.547h1.73v1.484h.03a3.068 3.068 0 0 1 2.782-1.576c2.222 0 3.682 1.791 3.682 4.565Zm-1.84 0c0-1.812-.911-3-2.312-3-1.371 0-2.292 1.219-2.292 3 0 1.801.921 3.009 2.292 3.009 1.4 0 2.311-1.188 2.311-3.01ZM66.23 26.02c0 2.773-1.45 4.564-3.642 4.564a2.947 2.947 0 0 1-2.751-1.566h-.04v4.432h-1.792V21.547h1.731v1.484h.03a3.068 3.068 0 0 1 2.782-1.576c2.222 0 3.683 1.791 3.683 4.565Zm-1.84 0c0-1.812-.911-3-2.312-3-1.37 0-2.292 1.219-2.292 3 0 1.801.921 3.009 2.292 3.009 1.4 0 2.311-1.188 2.311-3.01ZM72.585 27.074c.13 1.218 1.29 2.016 2.861 2.016 1.511 0 2.602-.798 2.602-1.893 0-.952-.66-1.525-2.211-1.914l-1.551-.379c-2.202-.542-3.222-1.597-3.222-3.306 0-2.118 1.8-3.572 4.362-3.572 2.532 0 4.273 1.454 4.323 3.572h-1.801c-.11-1.228-1.1-1.965-2.542-1.965-1.44 0-2.431.747-2.431 1.832 0 .87.63 1.382 2.171 1.77l1.321.328c2.462.594 3.482 1.607 3.482 3.398 0 2.293-1.78 3.726-4.623 3.726-2.661 0-4.452-1.402-4.573-3.623l1.832.01ZM83.822 19.439v2.108h1.66V23h-1.66v4.923c0 .768.33 1.126 1.06 1.126.2 0 .39-.02.59-.04v1.442a4.67 4.67 0 0 1-1 .082c-1.771 0-2.462-.675-2.462-2.415V22.99h-1.26v-1.443h1.27v-2.119h1.802v.01ZM86.443 26.02c0-2.815 1.621-4.575 4.143-4.575 2.532 0 4.142 1.77 4.142 4.575 0 2.825-1.6 4.575-4.142 4.575-2.542 0-4.143-1.76-4.143-4.575Zm6.464 0c0-1.924-.86-3.07-2.321-3.07-1.461 0-2.322 1.146-2.322 3.07 0 1.934.861 3.07 2.322 3.07 1.46 0 2.321-1.136 2.321-3.07ZM96.21 21.547h1.71v1.525h.04c.24-.983 1.121-1.658 2.102-1.617.21 0 .41.02.61.072v1.719a2.388 2.388 0 0 0-.81-.113c-1-.04-1.841.748-1.881 1.771 0 .092 0 .195.01.287v5.301h-1.792l.01-8.945ZM108.947 27.862c-.24 1.627-1.781 2.733-3.762 2.733-2.542 0-4.123-1.74-4.123-4.534 0-2.805 1.591-4.627 4.043-4.627 2.422 0 3.942 1.7 3.942 4.412v.624h-6.173v.113c-.11 1.279.81 2.415 2.061 2.528.09.01.19.01.28.01a1.983 1.983 0 0 0 2.021-1.26h1.711Zm-6.063-2.671h4.372c.06-1.188-.82-2.2-1.981-2.262h-.16c-1.221-.01-2.221 1.003-2.221 2.251-.01 0-.01.01-.01.01ZM37.803 14.894V9.01h2.321c1.08 0 1.731.563 1.731 1.474 0 .614-.42 1.146-1.01 1.27v.07c.74.031 1.31.666 1.3 1.413 0 1.034-.74 1.668-1.97 1.668l-2.372-.01Zm.9-3.398h1.06c.791 0 1.202-.296 1.202-.86 0-.542-.39-.86-1.051-.86h-1.21v1.72Zm1.291 2.62c.81 0 1.23-.337 1.23-.962 0-.614-.44-.941-1.28-.941h-1.24v1.893h1.29v.01ZM43.056 13.635c0-.798.58-1.258 1.621-1.33l1.18-.072v-.379c0-.47-.3-.736-.89-.736-.48 0-.81.184-.91.49h-.83c.09-.767.79-1.248 1.77-1.248 1.09 0 1.701.553 1.701 1.495v3.04h-.83v-.625h-.07c-.28.46-.78.727-1.301.696-.72.072-1.371-.46-1.441-1.197a.299.299 0 0 0 0-.134Zm2.802-.378v-.369l-1.06.072c-.601.04-.872.245-.872.645 0 .399.34.634.811.634.56.062 1.06-.358 1.12-.941-.01-.02 0-.031 0-.041ZM47.939 9.132a.567.567 0 0 1 .52-.604.57.57 0 0 1 .07 1.136h-.03a.53.53 0 0 1-.55-.511c-.01 0-.01-.01-.01-.021Zm.13 1.31h.85v4.452h-.85v-4.452ZM51.861 13.318l-.95 1.576h-.94l1.44-2.21-1.45-2.232h1l.93 1.566h.07l.921-1.566h.95l-1.42 2.19 1.45 2.252h-.98l-.95-1.576h-.07ZM54.613 13.635c0-.798.58-1.258 1.621-1.33l1.181-.072v-.379c0-.47-.3-.736-.89-.736-.48 0-.811.184-.911.49h-.83c.09-.767.79-1.248 1.77-1.248 1.091 0 1.701.553 1.701 1.495v3.04h-.82v-.625h-.07c-.28.46-.78.727-1.3.696-.721.072-1.372-.46-1.442-1.197 0-.042-.01-.093-.01-.134Zm2.802-.378v-.369l-1.06.072c-.601.04-.871.245-.871.645 0 .399.34.634.81.634.56.062 1.061-.358 1.121-.941-.01-.02-.01-.031 0-.041ZM59.606 10.442h.83v.686h.06c.191-.481.661-.788 1.172-.758.13 0 .26.01.38.041v.87c-.16-.03-.32-.05-.48-.05a1.019 1.019 0 0 0-1.101.94V14.895h-.86v-4.452ZM65.36 10.442h.83v.706h.06c.22-.522.741-.839 1.301-.788a1.41 1.41 0 0 1 1.511 1.33c.01.103 0 .216-.01.318v2.886h-.86v-2.66c0-.717-.3-1.075-.94-1.075a.999.999 0 0 0-1.041.972v2.763h-.861l.01-4.452ZM70.133 13.635c0-.798.58-1.258 1.621-1.33l1.18-.072v-.379c0-.47-.3-.736-.89-.736-.48 0-.81.184-.91.49h-.83c.09-.767.79-1.248 1.77-1.248 1.09 0 1.701.553 1.701 1.495v3.04h-.83v-.625h-.07c-.28.46-.78.727-1.301.696-.72.072-1.371-.46-1.441-1.197v-.134Zm2.792-.378v-.369l-1.06.072c-.601.04-.871.245-.871.645 0 .399.34.634.81.634.56.062 1.06-.358 1.12-.941v-.041Z" fill="#fff"/></svg>
