<svg width="128" height="40" fill="none" xmlns="http://www.w3.org/2000/svg"><path d="M123.259 40H4.741C2.134 40 0 37.749 0 35V5c0-2.749 2.134-5 4.74-5H123.26C125.866 0 128 2.251 128 5v30c0 2.749-2.134 5-4.741 5Z" fill="#000"/><path d="M123.259.799c2.194 0 3.984 1.888 3.984 4.201v30c0 2.313-1.79 4.201-3.984 4.201H4.741C2.547 39.201.757 37.313.757 35V5c0-2.313 1.79-4.201 3.984-4.201h118.518Zm0-.799H4.741C2.134 0 0 2.251 0 5v30c0 2.749 2.134 5 4.74 5H123.26c2.607 0 4.741-2.251 4.741-5V5c0-2.749-2.134-5-4.741-5Z" fill="#A6A6A6"/><path d="M64.341 21.542c-2.2 0-3.993 1.703-3.993 4.059 0 2.336 1.793 4.058 3.993 4.058s3.993-1.722 3.993-4.058c0-2.356-1.793-4.06-3.993-4.06Zm0 6.524c-1.202 0-2.239-1.01-2.239-2.455 0-1.466 1.037-2.456 2.239-2.456s2.239 1 2.239 2.456c.01 1.435-1.028 2.455-2.239 2.455Zm-8.693-6.524c-2.2 0-3.993 1.703-3.993 4.059 0 2.336 1.793 4.058 3.993 4.058s3.992-1.722 3.992-4.058c-.01-2.356-1.802-4.06-3.992-4.06Zm0 6.524c-1.202 0-2.24-1.01-2.24-2.455 0-1.466 1.038-2.456 2.24-2.456 1.201 0 2.238 1 2.238 2.456 0 1.435-1.037 2.455-2.238 2.455Zm-10.351-5.277v1.723h4.032c-.117.97-.437 1.673-.921 2.168-.591.604-1.502 1.257-3.111 1.257-2.481 0-4.43-2.05-4.43-4.584s1.94-4.583 4.43-4.583c1.337 0 2.316.535 3.043 1.228l1.192-1.218c-1.008-.98-2.345-1.732-4.225-1.732-3.402 0-6.261 2.83-6.261 6.306 0 3.474 2.859 6.305 6.26 6.305 1.832 0 3.218-.613 4.304-1.772 1.114-1.138 1.463-2.732 1.463-4.029 0-.396-.029-.772-.087-1.079h-5.69v.01Zm42.323 1.337c-.33-.911-1.337-2.584-3.401-2.584-2.045 0-3.751 1.643-3.751 4.059 0 2.277 1.686 4.058 3.944 4.058 1.822 0 2.879-1.138 3.315-1.801l-1.357-.92c-.456.672-1.066 1.118-1.958 1.118-.891 0-1.521-.416-1.928-1.228l5.31-2.247-.174-.455Zm-5.417 1.356c-.049-1.564 1.192-2.366 2.074-2.366.688 0 1.279.356 1.473.861l-3.547 1.505Zm-4.323 3.93h1.745V17.483H77.88v11.929Zm-2.859-6.96h-.058c-.388-.475-1.144-.91-2.093-.91-1.987 0-3.81 1.782-3.81 4.078 0 2.277 1.823 4.04 3.81 4.04.95 0 1.696-.426 2.093-.921h.058v.584c0 1.554-.814 2.386-2.122 2.386-1.066 0-1.735-.782-2.007-1.446l-1.521.644c.436 1.079 1.599 2.395 3.518 2.395 2.045 0 3.78-1.227 3.78-4.227V21.79H75.01v.664h.01Zm-1.996 5.614c-1.202 0-2.21-1.03-2.21-2.445 0-1.426 1.008-2.475 2.21-2.475 1.192 0 2.122 1.049 2.122 2.474 0 1.416-.93 2.446-2.122 2.446ZM95.8 17.483h-4.177v11.929h1.744v-4.524H95.8c1.929 0 3.828-1.426 3.828-3.702 0-2.277-1.89-3.703-3.828-3.703Zm.049 5.752h-2.482v-4.089h2.481c1.3 0 2.045 1.1 2.045 2.05 0 .92-.746 2.039-2.044 2.039Zm10.767-1.713c-1.26 0-2.568.564-3.111 1.822l1.551.663c.329-.663.949-.871 1.589-.871.901 0 1.822.554 1.832 1.534v.119c-.32-.188-.989-.465-1.822-.465-1.667 0-3.363.94-3.363 2.682 0 1.594 1.366 2.624 2.897 2.624 1.173 0 1.822-.535 2.22-1.168h.058v.92h1.686V24.81c.01-2.109-1.531-3.287-3.537-3.287Zm-.204 6.534c-.571 0-1.366-.287-1.366-1.01 0-.92.988-1.277 1.851-1.277.766 0 1.124.168 1.589.396-.135 1.109-1.066 1.89-2.074 1.89Zm9.886-6.277-1.997 5.168h-.058l-2.074-5.168h-1.88l3.111 7.227-1.774 4.02h1.822l4.798-11.247h-1.948Zm-15.701 7.633h1.745V17.483h-1.745v11.929Z" fill="#fff"/><path d="M10.436 7.98c-.271.297-.436.752-.436 1.336v21.106c0 .594.165 1.049.436 1.336l.068.07 11.572-11.82v-.278L10.504 7.91l-.068.07Z" fill="url(#a)"/><path d="m25.943 23.957-3.858-3.94v-.277l3.858-3.94.087.05 4.574 2.653c1.309.762 1.309 2 0 2.752l-4.574 2.653-.087.05Z" fill="url(#b)"/><path d="m26.03 23.908-3.945-4.03-11.649 11.89c.427.465 1.144.525 1.938.06l13.656-7.92Z" fill="url(#c)"/><path d="M26.03 15.84 12.384 7.92c-.804-.465-1.512-.405-1.938.06l11.64 11.889 3.944-4.03Z" fill="url(#d)"/><path opacity=".2" d="m25.943 23.819-13.559 7.87c-.756.435-1.434.416-1.87.01l-.068.069.068.07c.436.395 1.114.425 1.87-.01l13.646-7.92-.087-.09Z" fill="#000"/><path opacity=".12" d="M10.436 31.63c-.271-.298-.436-.753-.436-1.337v.139c0 .594.165 1.049.436 1.336l.068-.07-.068-.069ZM30.595 21.106l-4.652 2.713.087.089 4.574-2.653c.65-.376.98-.881.98-1.376-.059.445-.398.89-.99 1.227Z" fill="#000"/><path opacity=".25" d="m12.384 8.059 18.22 10.572c.591.347.92.783.979 1.238 0-.495-.33-1-.979-1.376L12.384 7.92c-1.309-.762-2.375-.128-2.375 1.396v.139c0-1.525 1.066-2.148 2.375-1.396Z" fill="#fff"/><path d="M39.307 13.187V7.465h1.716c.862 0 1.55.267 2.064.792.514.535.776 1.218.776 2.069s-.262 1.534-.776 2.069c-.513.535-1.202.792-2.064.792h-1.716Zm.718-.703h.998c.65 0 1.163-.188 1.54-.564.379-.376.573-.91.573-1.594 0-.673-.184-1.208-.572-1.584-.378-.376-.892-.574-1.541-.574h-.998v4.316ZM44.88 13.187V7.465h.717v5.722h-.717ZM48.456 13.316c-.407 0-.804-.139-1.192-.406-.387-.268-.64-.654-.765-1.149l.659-.267c.077.317.242.584.484.792.243.218.514.327.814.327.31 0 .582-.08.805-.248a.807.807 0 0 0 .33-.683c0-.317-.107-.564-.33-.742-.223-.178-.572-.337-1.057-.485-.494-.159-.872-.367-1.124-.624a1.327 1.327 0 0 1-.387-.97c0-.406.155-.772.474-1.07.32-.306.737-.455 1.24-.455.476 0 .864.12 1.164.367.3.247.494.505.581.792l-.659.277c-.048-.178-.164-.347-.349-.505-.184-.158-.426-.228-.717-.228-.28 0-.513.08-.707.238a.732.732 0 0 0-.29.584c0 .218.086.396.27.544.185.149.446.278.795.396.281.09.504.179.698.268.184.089.378.198.562.336.194.139.33.317.426.525.097.208.146.455.146.732 0 .278-.058.525-.165.743a1.463 1.463 0 0 1-.446.525 1.983 1.983 0 0 1-.6.287c-.214.069-.427.099-.66.099ZM52.081 13.187h-.717V7.465h1.91c.474 0 .881.158 1.23.485a1.6 1.6 0 0 1 .523 1.218c0 .495-.174.9-.523 1.217a1.732 1.732 0 0 1-1.23.486H52.08v2.316Zm0-3.02h1.202c.3 0 .543-.098.727-.306.184-.208.271-.436.271-.683 0-.248-.087-.475-.271-.683a.928.928 0 0 0-.727-.317H52.08v1.99ZM60.523 12.454a2.75 2.75 0 0 1-2.055.871c-.824 0-1.502-.287-2.055-.87-.552-.575-.824-1.287-.824-2.12 0-.84.272-1.543.824-2.118a2.735 2.735 0 0 1 2.055-.87c.814 0 1.502.286 2.054.87.553.585.834 1.287.834 2.119-.01.832-.281 1.534-.834 2.118Zm-3.577-.485c.417.426.921.644 1.522.644.6 0 1.105-.218 1.521-.644.417-.425.62-.98.62-1.643s-.203-1.218-.62-1.643a2.048 2.048 0 0 0-1.521-.644c-.601 0-1.105.218-1.522.644-.416.425-.62.98-.62 1.643-.01.673.203 1.218.62 1.643ZM62.354 13.187V7.465h.872l2.724 4.455h.029l-.03-1.099V7.475h.718v5.722h-.756l-2.85-4.673h-.028l.029 1.1v3.563h-.708ZM67.966 13.187V7.465h.717v5.722h-.717Zm.668-6.167h-.63L68.411 6h.785l-.562 1.02ZM71.348 13.187l-1.977-5.722h.795l1.53 4.643h.03l1.6-4.643h.794l-2.035 5.722h-.737ZM78.23 8.168h-2.55V9.98h2.307v.683H75.68v1.811h2.55v.703h-3.277V7.455h3.276v.713ZM79.353 13.187V7.465h.718v5.02h2.422v.702h-3.14ZM85.285 13.187V7.465h.872l2.723 4.455h.03l-.03-1.099V7.475h.717v5.722h-.756l-2.849-4.673h-.029l.03 1.1v3.563h-.708ZM95.48 12.454a2.75 2.75 0 0 1-2.054.871c-.824 0-1.503-.287-2.055-.87-.552-.575-.824-1.287-.824-2.12 0-.84.272-1.543.824-2.118a2.735 2.735 0 0 1 2.055-.87c.814 0 1.502.286 2.054.87.553.585.834 1.287.834 2.119-.01.832-.291 1.534-.834 2.118Zm-3.586-.485c.417.426.921.644 1.522.644.6 0 1.105-.218 1.522-.644.416-.425.62-.98.62-1.643s-.204-1.218-.62-1.643a2.049 2.049 0 0 0-1.522-.644c-.601 0-1.105.218-1.522.644-.416.425-.62.98-.62 1.643 0 .673.213 1.218.62 1.643Z" fill="#fff" stroke="#fff" stroke-width=".277" stroke-miterlimit="10"/><defs><linearGradient id="a" x1="21.055" y1="9.098" x2="5.044" y2="24.773" gradientUnits="userSpaceOnUse"><stop stop-color="#00A0FF"/><stop offset=".007" stop-color="#00A1FF"/><stop offset=".26" stop-color="#00BEFF"/><stop offset=".512" stop-color="#00D2FF"/><stop offset=".76" stop-color="#00DFFF"/><stop offset="1" stop-color="#00E3FF"/></linearGradient><linearGradient id="b" x1="32.298" y1="19.873" x2="9.692" y2="19.873" gradientUnits="userSpaceOnUse"><stop stop-color="#FFE000"/><stop offset=".409" stop-color="#FFBD00"/><stop offset=".775" stop-color="orange"/><stop offset="1" stop-color="#FF9C00"/></linearGradient><linearGradient id="c" x1="23.883" y1="22.063" x2="2.171" y2="43.32" gradientUnits="userSpaceOnUse"><stop stop-color="#FF3A44"/><stop offset="1" stop-color="#C31162"/></linearGradient><linearGradient id="d" x1="7.506" y1=".954" x2="17.202" y2="10.446" gradientUnits="userSpaceOnUse"><stop stop-color="#32A071"/><stop offset=".069" stop-color="#2DA771"/><stop offset=".476" stop-color="#15CF74"/><stop offset=".801" stop-color="#06E775"/><stop offset="1" stop-color="#00F076"/></linearGradient></defs></svg>
