<svg xmlns="http://www.w3.org/2000/svg" version="1.1" id="Camada_1" x="0" y="0" style="enable-background:new 0 0 140 65" xml:space="preserve" viewBox="3.49 17.7 133.21 31.82"><style>.st1{fill:#fff}</style><path id="Caminho_1310_00000103963445535036598310000015889099733822930062_" d="M133.1 17.8c-2.2-.1-4.1 1.6-4.3 3.8v.2c0 1.9 1.4 3.4 3.3 3.4h.2c2.2.2 4.2-1.4 4.4-3.6v-.4c.1-1.9-1.4-3.4-3.3-3.5 0 .1-.2.1-.3.1z" style="fill:#ff8300"/><path id="Caminho_1306_00000155144405740827132730000005058850671399809922_" class="st1" d="M29.8 21.9c.2-.3.1-.7-.2-.8h-.2c-2.1-.7-4.4-1-6.6-1-3.7-.1-7.5.7-10.8 2.3-5.4 2.6-8.7 8.1-8.5 14 0 9.2 6.8 13.1 14.5 13.1 2.8.1 5.5-.3 8.1-1.1.4-.1.6-.5.5-1l-.6-4.5c-.1-.5-.6-.5-.9-.4-1.6.5-3.3.7-5 .7-5.1 0-8.3-2.7-8.3-7.4-.1-3.2 1.4-6.1 4-7.9 2-1.1 4.2-1.7 6.5-1.6 1.7 0 3.4.2 5 .7.4.2.8 0 1-.3v-.1l1.2-3.7.3-1z"/><path id="Caminho_1307_00000110457790842963035390000008402357056239330947_" class="st1" d="M42.7 27.7c-.6 0-1.2 0-1.8.1-5.5.4-10 4.2-11.4 9.5-.2 1-.4 2.1-.4 3.1s.1 1.9.4 2.8c1.2 4.3 5.2 6.3 9.5 6.3.6 0 1.2 0 1.8-.1 6.7-.7 11.8-5.1 11.8-12.9.1-5.5-4.4-8.8-9.9-8.8zm-1.8 16c-.2 0-.5.1-.8.1-1.8 0-3-1.1-3-3.5 0-2.1 1-6.2 3.8-6.8.3-.1.6-.1.8-.1 2.2 0 3 1.6 3 3.6 0 2.4-1.1 6.1-3.8 6.7z"/><path id="Caminho_1308_00000119093558526318276660000006076504418679566243_" class="st1" d="M103.5 28.6c-2.3-.6-4.6-1-7-1-1.5 0-2.9.1-4.4.4-8.1 1.6-11.6 7.6-11.6 13.7 0 4.8 3.1 7.8 7 7.8 1.7 0 3.3-.5 4.7-1.5 1-.7 1.8-1.7 2.4-2.7h.1c0 1-.1 1.9-.2 2.9-.1.4.2.7.6.8h5.6c.5 0 .8-.2.8-.8.1-2.9.3-5.7.8-8.5l1.9-9.9c.2-.4 0-.9-.4-1-.2-.1-.2-.1-.3-.2zm-8.3 8.3c-.7 3.8-1.9 5.5-3.1 6.2-.4.2-.9.4-1.3.4-1.2 0-2.3-1-2.3-3 0-2.6 1.4-5.1 3.6-6.5.7-.4 1.5-.6 2.3-.6.4 0 .9 0 1.3.1l-.5 3.4z"/><path id="Caminho_1309_00000163792573757093554480000003101382506143179919_" class="st1" d="M71.6 27.7c-1.7 0-3.3.4-4.8 1.1-.6.3-1.1.7-1.6 1.1h-.1l1.7-8.3.5-2.3c.1-.3-.1-.5-.3-.6H60.6c-.4 0-.7.3-.8.7l-4 19.4c-.3 1.4-.5 2.9-.5 4.3 0 3.8 2.5 6.4 8.5 6.4 1 0 2.1-.1 3.1-.2 6.9-1.1 11.9-7.1 11.7-14-.1-4.4-2.7-7.6-7-7.6zm-4.8 15.7c-.5.2-1 .4-1.6.4-1.1.1-2-.8-2.1-1.8v-.2c0-.8 0-1.5.2-2.2l.1-.5c.5-2.8 1.9-4.5 3.4-5.1.4-.2.8-.2 1.2-.2 1.5 0 2.5 1.2 2.5 3 .1 2.7-1.4 5.2-3.7 6.6z"/><path id="Caminho_1311_00000168095035723295957900000001005837312290007724_" class="st1" d="M134.7 28.5h-6c-.4 0-.8.3-.8.7l-3.6 19.2c-.1.3.1.7.4.8h6.2c.5 0 .8-.3.9-.8l3.6-19.4c0-.2-.2-.5-.7-.5z"/><path id="Caminho_1312_00000026155828619865631260000002338129095490091451_" class="st1" d="M122.7 28.6c-1.9-.6-3.8-.9-5.8-.9-6 0-10.4 2.8-10.4 7.6 0 3.1 2.8 4.8 5.4 5.8 1.9.7 2.6 1.3 2.6 2 0 .6-.6 1.1-2.1 1.1-2.1-.1-4.1-.6-6.1-1.5-.4-.1-.7 0-.8.5l-1.3 3.8c-.2.5 0 .8.4 1 2.2 1 4.6 1.5 7 1.5 6.3.1 10.8-2.6 10.8-7.6 0-3.7-3.5-5.1-5.6-5.9-1.8-.7-2.7-1.3-2.7-1.8 0-.7.8-1.1 2.2-1.1 1.5 0 3 .2 4.4.7.5.2.7 0 .9-.5l1.3-4c.3-.3.3-.6-.2-.7z"/></svg>
